<?xml version="1.0" encoding="UTF-8"?>
<svg xmlns="http://www.w3.org/2000/svg" xmlns:xlink="http://www.w3.org/1999/xlink"
     width="860" height="671" viewBox="0 0 860 671">
<defs>
  <clipPath id="avatarClip">
    <circle cx="72" cy="72" r="42"/>
  </clipPath>
  <linearGradient id="headerGrad" x1="0" y1="0" x2="1" y2="0">
    <stop offset="0%" stop-color="#58a6ff" stop-opacity="0.08"/>
    <stop offset="100%" stop-color="#a371f7" stop-opacity="0.04"/>
  </linearGradient>
  <filter id="glow">
    <feGaussianBlur stdDeviation="3" result="blur"/>
    <feMerge><feMergeNode in="blur"/><feMergeNode in="SourceGraphic"/></feMerge>
  </filter>
</defs>

<!-- Background -->
<rect width="860" height="671" rx="12" fill="#0d1117"/>

<!-- Subtle top accent line -->
<rect x="0" y="0" width="860" height="2" rx="1" fill="#58a6ff" opacity="0.6"/>

<!-- Avatar -->
<circle cx="72" cy="72" r="43" fill="#30363d"/>
<image x="30" y="30" width="84" height="84" clip-path="url(#avatarClip)"
       xlink:href="https://avatars.githubusercontent.com/u/130288076?v=4" preserveAspectRatio="xMidYMid slice"/>

<text x="132" y="58" font-family="-apple-system, BlinkMacSystemFont, 'Segoe UI', Helvetica, Arial, sans-serif" font-size="22" fill="#e6edf3" text-anchor="start" font-weight="bold" opacity="1.0" >刃律RenAhsAcme</text>
<text x="132" y="84" font-family="-apple-system, BlinkMacSystemFont, 'Segoe UI', Helvetica, Arial, sans-serif" font-size="14" fill="#8b949e" text-anchor="start" opacity="1.0" >Researcher on Embodied AI Security</text>
<text x="132" y="108" font-family="-apple-system, BlinkMacSystemFont, 'Segoe UI', Helvetica, Arial, sans-serif" font-size="12" fill="#6e7681" text-anchor="start" opacity="1.0" font-style="italic">"Come on pick up the pace!"</text>
<text x="132" y="130" font-family="-apple-system, BlinkMacSystemFont, 'Segoe UI', Helvetica, Arial, sans-serif" font-size="12" fill="#8b949e" text-anchor="start" opacity="1.0" >🎓  中山大学 网络空间安全学院</text>
<rect x="446" y="42" width="86" height="56" rx="6" fill="#161b22" stroke="#30363d" stroke-width="1" opacity="1.0"/>
<text x="489.0" y="64" font-family="-apple-system, BlinkMacSystemFont, 'Segoe UI', Helvetica, Arial, sans-serif" font-size="20" fill="#e6edf3" text-anchor="middle" font-weight="bold" opacity="1.0" >0</text>
<text x="489.0" y="84" font-family="-apple-system, BlinkMacSystemFont, 'Segoe UI', Helvetica, Arial, sans-serif" font-size="11" fill="#8b949e" text-anchor="middle" opacity="1.0" >Stars</text>
<rect x="542" y="42" width="86" height="56" rx="6" fill="#161b22" stroke="#30363d" stroke-width="1" opacity="1.0"/>
<text x="585.0" y="64" font-family="-apple-system, BlinkMacSystemFont, 'Segoe UI', Helvetica, Arial, sans-serif" font-size="20" fill="#e6edf3" text-anchor="middle" font-weight="bold" opacity="1.0" >0</text>
<text x="585.0" y="84" font-family="-apple-system, BlinkMacSystemFont, 'Segoe UI', Helvetica, Arial, sans-serif" font-size="11" fill="#8b949e" text-anchor="middle" opacity="1.0" >Followers</text>
<rect x="638" y="42" width="86" height="56" rx="6" fill="#161b22" stroke="#30363d" stroke-width="1" opacity="1.0"/>
<text x="681.0" y="64" font-family="-apple-system, BlinkMacSystemFont, 'Segoe UI', Helvetica, Arial, sans-serif" font-size="20" fill="#e6edf3" text-anchor="middle" font-weight="bold" opacity="1.0" >0</text>
<text x="681.0" y="84" font-family="-apple-system, BlinkMacSystemFont, 'Segoe UI', Helvetica, Arial, sans-serif" font-size="11" fill="#8b949e" text-anchor="middle" opacity="1.0" >Repos</text>
<rect x="734" y="42" width="86" height="56" rx="6" fill="#161b22" stroke="#30363d" stroke-width="1" opacity="1.0"/>
<text x="777.0" y="64" font-family="-apple-system, BlinkMacSystemFont, 'Segoe UI', Helvetica, Arial, sans-serif" font-size="20" fill="#e6edf3" text-anchor="middle" font-weight="bold" opacity="1.0" >0</text>
<text x="777.0" y="84" font-family="-apple-system, BlinkMacSystemFont, 'Segoe UI', Helvetica, Arial, sans-serif" font-size="11" fill="#8b949e" text-anchor="middle" opacity="1.0" >Contribs</text>
<line x1="30" y1="150" x2="830" y2="150" stroke="#30363d" stroke-width="1"/>
<rect x="30" y="163" width="3" height="16" rx="2" fill="#58a6ff"/>
<text x="42" y="176" font-family="-apple-system, BlinkMacSystemFont, 'Segoe UI', Helvetica, Arial, sans-serif" font-size="14" fill="#e6edf3" text-anchor="start" font-weight="bold" opacity="1.0" >Research</text>
<rect x="30" y="195" width="160" height="24" rx="12" fill="#1a2a3a"/>
<text x="110.0" y="211" font-family="-apple-system, BlinkMacSystemFont, 'Segoe UI', Helvetica, Arial, sans-serif" font-size="12" fill="#58a6ff" text-anchor="middle" opacity="1.0" >Embodied AI Security</text>
<rect x="198" y="195" width="153" height="24" rx="12" fill="#1a2a1a"/>
<text x="274.5" y="211" font-family="-apple-system, BlinkMacSystemFont, 'Segoe UI', Helvetica, Arial, sans-serif" font-size="12" fill="#3fb950" text-anchor="middle" opacity="1.0" >Threat Intelligence</text>
<rect x="359" y="195" width="132" height="24" rx="12" fill="#2a1a1a"/>
<text x="425.0" y="211" font-family="-apple-system, BlinkMacSystemFont, 'Segoe UI', Helvetica, Arial, sans-serif" font-size="12" fill="#d2991d" text-anchor="middle" opacity="1.0" >Pentesting &amp; CTF</text>
<rect x="30" y="227" width="181" height="24" rx="12" fill="#1a1a2a"/>
<text x="120.5" y="243" font-family="-apple-system, BlinkMacSystemFont, 'Segoe UI', Helvetica, Arial, sans-serif" font-size="12" fill="#a371f7" text-anchor="middle" opacity="1.0" >Artificial Intelligence</text>
<rect x="450" y="163" width="3" height="16" rx="2" fill="#3fb950"/>
<text x="462" y="176" font-family="-apple-system, BlinkMacSystemFont, 'Segoe UI', Helvetica, Arial, sans-serif" font-size="14" fill="#e6edf3" text-anchor="start" font-weight="bold" opacity="1.0" >Tech Stack</text>
<circle cx="458" cy="203" r="5" fill="#3572A5"/>
<text x="470" y="208" font-family="-apple-system, BlinkMacSystemFont, 'Segoe UI', Helvetica, Arial, sans-serif" font-size="13" fill="#e6edf3" text-anchor="start" opacity="1.0" >Python</text>
<circle cx="546" cy="203" r="5" fill="#f34b7d"/>
<text x="558" y="208" font-family="-apple-system, BlinkMacSystemFont, 'Segoe UI', Helvetica, Arial, sans-serif" font-size="13" fill="#e6edf3" text-anchor="start" opacity="1.0" >C / C++</text>
<circle cx="642" cy="203" r="5" fill="#dea584"/>
<text x="654" y="208" font-family="-apple-system, BlinkMacSystemFont, 'Segoe UI', Helvetica, Arial, sans-serif" font-size="13" fill="#e6edf3" text-anchor="start" opacity="1.0" >Rust</text>
<line x1="30" y1="245" x2="830" y2="245" stroke="#30363d" stroke-width="1"/>
<rect x="30" y="258" width="3" height="16" rx="2" fill="#3fb950"/>
<text x="42" y="271" font-family="-apple-system, BlinkMacSystemFont, 'Segoe UI', Helvetica, Arial, sans-serif" font-size="14" fill="#e6edf3" text-anchor="start" font-weight="bold" opacity="1.0" >Contributions (Last Year)</text>
<text x="830" y="271" font-family="-apple-system, BlinkMacSystemFont, 'Segoe UI', Helvetica, Arial, sans-serif" font-size="12" fill="#8b949e" text-anchor="end" opacity="1.0" >Total: 0</text>
<text x="22" y="315" font-family="-apple-system, BlinkMacSystemFont, 'Segoe UI', Helvetica, Arial, sans-serif" font-size="9" fill="#6e7681" text-anchor="end" opacity="1.0" >Mon</text>
<text x="22" y="341" font-family="-apple-system, BlinkMacSystemFont, 'Segoe UI', Helvetica, Arial, sans-serif" font-size="9" fill="#6e7681" text-anchor="end" opacity="1.0" >Wed</text>
<text x="22" y="367" font-family="-apple-system, BlinkMacSystemFont, 'Segoe UI', Helvetica, Arial, sans-serif" font-size="9" fill="#6e7681" text-anchor="end" opacity="1.0" >Fri</text>
<rect x="30" y="294" width="10" height="10" rx="2" fill="#161b22"/>
<rect x="30" y="307" width="10" height="10" rx="2" fill="#161b22"/>
<rect x="30" y="320" width="10" height="10" rx="2" fill="#161b22"/>
<rect x="30" y="333" width="10" height="10" rx="2" fill="#161b22"/>
<rect x="30" y="346" width="10" height="10" rx="2" fill="#161b22"/>
<rect x="30" y="359" width="10" height="10" rx="2" fill="#161b22"/>
<rect x="30" y="372" width="10" height="10" rx="2" fill="#161b22"/>
<rect x="43" y="294" width="10" height="10" rx="2" fill="#161b22"/>
<rect x="43" y="307" width="10" height="10" rx="2" fill="#161b22"/>
<rect x="43" y="320" width="10" height="10" rx="2" fill="#161b22"/>
<rect x="43" y="333" width="10" height="10" rx="2" fill="#161b22"/>
<rect x="43" y="346" width="10" height="10" rx="2" fill="#161b22"/>
<rect x="43" y="359" width="10" height="10" rx="2" fill="#161b22"/>
<rect x="43" y="372" width="10" height="10" rx="2" fill="#161b22"/>
<rect x="56" y="294" width="10" height="10" rx="2" fill="#161b22"/>
<rect x="56" y="307" width="10" height="10" rx="2" fill="#161b22"/>
<rect x="56" y="320" width="10" height="10" rx="2" fill="#161b22"/>
<rect x="56" y="333" width="10" height="10" rx="2" fill="#161b22"/>
<rect x="56" y="346" width="10" height="10" rx="2" fill="#161b22"/>
<rect x="56" y="359" width="10" height="10" rx="2" fill="#161b22"/>
<rect x="56" y="372" width="10" height="10" rx="2" fill="#161b22"/>
<rect x="69" y="294" width="10" height="10" rx="2" fill="#161b22"/>
<rect x="69" y="307" width="10" height="10" rx="2" fill="#161b22"/>
<rect x="69" y="320" width="10" height="10" rx="2" fill="#161b22"/>
<rect x="69" y="333" width="10" height="10" rx="2" fill="#161b22"/>
<rect x="69" y="346" width="10" height="10" rx="2" fill="#161b22"/>
<rect x="69" y="359" width="10" height="10" rx="2" fill="#161b22"/>
<rect x="69" y="372" width="10" height="10" rx="2" fill="#161b22"/>
<rect x="82" y="294" width="10" height="10" rx="2" fill="#161b22"/>
<rect x="82" y="307" width="10" height="10" rx="2" fill="#161b22"/>
<rect x="82" y="320" width="10" height="10" rx="2" fill="#161b22"/>
<rect x="82" y="333" width="10" height="10" rx="2" fill="#161b22"/>
<rect x="82" y="346" width="10" height="10" rx="2" fill="#161b22"/>
<rect x="82" y="359" width="10" height="10" rx="2" fill="#161b22"/>
<rect x="82" y="372" width="10" height="10" rx="2" fill="#161b22"/>
<rect x="95" y="294" width="10" height="10" rx="2" fill="#161b22"/>
<rect x="95" y="307" width="10" height="10" rx="2" fill="#161b22"/>
<rect x="95" y="320" width="10" height="10" rx="2" fill="#161b22"/>
<rect x="95" y="333" width="10" height="10" rx="2" fill="#161b22"/>
<rect x="95" y="346" width="10" height="10" rx="2" fill="#161b22"/>
<rect x="95" y="359" width="10" height="10" rx="2" fill="#161b22"/>
<rect x="95" y="372" width="10" height="10" rx="2" fill="#161b22"/>
<rect x="108" y="294" width="10" height="10" rx="2" fill="#161b22"/>
<rect x="108" y="307" width="10" height="10" rx="2" fill="#161b22"/>
<rect x="108" y="320" width="10" height="10" rx="2" fill="#161b22"/>
<rect x="108" y="333" width="10" height="10" rx="2" fill="#161b22"/>
<rect x="108" y="346" width="10" height="10" rx="2" fill="#161b22"/>
<rect x="108" y="359" width="10" height="10" rx="2" fill="#161b22"/>
<rect x="108" y="372" width="10" height="10" rx="2" fill="#161b22"/>
<rect x="121" y="294" width="10" height="10" rx="2" fill="#161b22"/>
<rect x="121" y="307" width="10" height="10" rx="2" fill="#161b22"/>
<rect x="121" y="320" width="10" height="10" rx="2" fill="#161b22"/>
<rect x="121" y="333" width="10" height="10" rx="2" fill="#161b22"/>
<rect x="121" y="346" width="10" height="10" rx="2" fill="#161b22"/>
<rect x="121" y="359" width="10" height="10" rx="2" fill="#161b22"/>
<rect x="121" y="372" width="10" height="10" rx="2" fill="#161b22"/>
<rect x="134" y="294" width="10" height="10" rx="2" fill="#161b22"/>
<rect x="134" y="307" width="10" height="10" rx="2" fill="#161b22"/>
<rect x="134" y="320" width="10" height="10" rx="2" fill="#161b22"/>
<rect x="134" y="333" width="10" height="10" rx="2" fill="#161b22"/>
<rect x="134" y="346" width="10" height="10" rx="2" fill="#161b22"/>
<rect x="134" y="359" width="10" height="10" rx="2" fill="#161b22"/>
<rect x="134" y="372" width="10" height="10" rx="2" fill="#161b22"/>
<rect x="147" y="294" width="10" height="10" rx="2" fill="#161b22"/>
<rect x="147" y="307" width="10" height="10" rx="2" fill="#161b22"/>
<rect x="147" y="320" width="10" height="10" rx="2" fill="#161b22"/>
<rect x="147" y="333" width="10" height="10" rx="2" fill="#161b22"/>
<rect x="147" y="346" width="10" height="10" rx="2" fill="#161b22"/>
<rect x="147" y="359" width="10" height="10" rx="2" fill="#161b22"/>
<rect x="147" y="372" width="10" height="10" rx="2" fill="#161b22"/>
<rect x="160" y="294" width="10" height="10" rx="2" fill="#161b22"/>
<rect x="160" y="307" width="10" height="10" rx="2" fill="#161b22"/>
<rect x="160" y="320" width="10" height="10" rx="2" fill="#161b22"/>
<rect x="160" y="333" width="10" height="10" rx="2" fill="#161b22"/>
<rect x="160" y="346" width="10" height="10" rx="2" fill="#161b22"/>
<rect x="160" y="359" width="10" height="10" rx="2" fill="#161b22"/>
<rect x="160" y="372" width="10" height="10" rx="2" fill="#161b22"/>
<rect x="173" y="294" width="10" height="10" rx="2" fill="#161b22"/>
<rect x="173" y="307" width="10" height="10" rx="2" fill="#161b22"/>
<rect x="173" y="320" width="10" height="10" rx="2" fill="#161b22"/>
<rect x="173" y="333" width="10" height="10" rx="2" fill="#161b22"/>
<rect x="173" y="346" width="10" height="10" rx="2" fill="#161b22"/>
<rect x="173" y="359" width="10" height="10" rx="2" fill="#161b22"/>
<rect x="173" y="372" width="10" height="10" rx="2" fill="#161b22"/>
<rect x="186" y="294" width="10" height="10" rx="2" fill="#161b22"/>
<rect x="186" y="307" width="10" height="10" rx="2" fill="#161b22"/>
<rect x="186" y="320" width="10" height="10" rx="2" fill="#161b22"/>
<rect x="186" y="333" width="10" height="10" rx="2" fill="#161b22"/>
<rect x="186" y="346" width="10" height="10" rx="2" fill="#161b22"/>
<rect x="186" y="359" width="10" height="10" rx="2" fill="#161b22"/>
<rect x="186" y="372" width="10" height="10" rx="2" fill="#161b22"/>
<rect x="199" y="294" width="10" height="10" rx="2" fill="#161b22"/>
<rect x="199" y="307" width="10" height="10" rx="2" fill="#161b22"/>
<rect x="199" y="320" width="10" height="10" rx="2" fill="#161b22"/>
<rect x="199" y="333" width="10" height="10" rx="2" fill="#161b22"/>
<rect x="199" y="346" width="10" height="10" rx="2" fill="#161b22"/>
<rect x="199" y="359" width="10" height="10" rx="2" fill="#161b22"/>
<rect x="199" y="372" width="10" height="10" rx="2" fill="#161b22"/>
<rect x="212" y="294" width="10" height="10" rx="2" fill="#161b22"/>
<rect x="212" y="307" width="10" height="10" rx="2" fill="#161b22"/>
<rect x="212" y="320" width="10" height="10" rx="2" fill="#161b22"/>
<rect x="212" y="333" width="10" height="10" rx="2" fill="#161b22"/>
<rect x="212" y="346" width="10" height="10" rx="2" fill="#161b22"/>
<rect x="212" y="359" width="10" height="10" rx="2" fill="#161b22"/>
<rect x="212" y="372" width="10" height="10" rx="2" fill="#161b22"/>
<rect x="225" y="294" width="10" height="10" rx="2" fill="#161b22"/>
<rect x="225" y="307" width="10" height="10" rx="2" fill="#161b22"/>
<rect x="225" y="320" width="10" height="10" rx="2" fill="#161b22"/>
<rect x="225" y="333" width="10" height="10" rx="2" fill="#161b22"/>
<rect x="225" y="346" width="10" height="10" rx="2" fill="#161b22"/>
<rect x="225" y="359" width="10" height="10" rx="2" fill="#161b22"/>
<rect x="225" y="372" width="10" height="10" rx="2" fill="#161b22"/>
<rect x="238" y="294" width="10" height="10" rx="2" fill="#161b22"/>
<rect x="238" y="307" width="10" height="10" rx="2" fill="#161b22"/>
<rect x="238" y="320" width="10" height="10" rx="2" fill="#161b22"/>
<rect x="238" y="333" width="10" height="10" rx="2" fill="#161b22"/>
<rect x="238" y="346" width="10" height="10" rx="2" fill="#161b22"/>
<rect x="238" y="359" width="10" height="10" rx="2" fill="#161b22"/>
<rect x="238" y="372" width="10" height="10" rx="2" fill="#161b22"/>
<rect x="251" y="294" width="10" height="10" rx="2" fill="#161b22"/>
<rect x="251" y="307" width="10" height="10" rx="2" fill="#161b22"/>
<rect x="251" y="320" width="10" height="10" rx="2" fill="#161b22"/>
<rect x="251" y="333" width="10" height="10" rx="2" fill="#161b22"/>
<rect x="251" y="346" width="10" height="10" rx="2" fill="#161b22"/>
<rect x="251" y="359" width="10" height="10" rx="2" fill="#161b22"/>
<rect x="251" y="372" width="10" height="10" rx="2" fill="#161b22"/>
<rect x="264" y="294" width="10" height="10" rx="2" fill="#161b22"/>
<rect x="264" y="307" width="10" height="10" rx="2" fill="#161b22"/>
<rect x="264" y="320" width="10" height="10" rx="2" fill="#161b22"/>
<rect x="264" y="333" width="10" height="10" rx="2" fill="#161b22"/>
<rect x="264" y="346" width="10" height="10" rx="2" fill="#161b22"/>
<rect x="264" y="359" width="10" height="10" rx="2" fill="#161b22"/>
<rect x="264" y="372" width="10" height="10" rx="2" fill="#161b22"/>
<rect x="277" y="294" width="10" height="10" rx="2" fill="#161b22"/>
<rect x="277" y="307" width="10" height="10" rx="2" fill="#161b22"/>
<rect x="277" y="320" width="10" height="10" rx="2" fill="#161b22"/>
<rect x="277" y="333" width="10" height="10" rx="2" fill="#161b22"/>
<rect x="277" y="346" width="10" height="10" rx="2" fill="#161b22"/>
<rect x="277" y="359" width="10" height="10" rx="2" fill="#161b22"/>
<rect x="277" y="372" width="10" height="10" rx="2" fill="#161b22"/>
<rect x="290" y="294" width="10" height="10" rx="2" fill="#161b22"/>
<rect x="290" y="307" width="10" height="10" rx="2" fill="#161b22"/>
<rect x="290" y="320" width="10" height="10" rx="2" fill="#161b22"/>
<rect x="290" y="333" width="10" height="10" rx="2" fill="#161b22"/>
<rect x="290" y="346" width="10" height="10" rx="2" fill="#161b22"/>
<rect x="290" y="359" width="10" height="10" rx="2" fill="#161b22"/>
<rect x="290" y="372" width="10" height="10" rx="2" fill="#161b22"/>
<rect x="303" y="294" width="10" height="10" rx="2" fill="#161b22"/>
<rect x="303" y="307" width="10" height="10" rx="2" fill="#161b22"/>
<rect x="303" y="320" width="10" height="10" rx="2" fill="#161b22"/>
<rect x="303" y="333" width="10" height="10" rx="2" fill="#161b22"/>
<rect x="303" y="346" width="10" height="10" rx="2" fill="#161b22"/>
<rect x="303" y="359" width="10" height="10" rx="2" fill="#161b22"/>
<rect x="303" y="372" width="10" height="10" rx="2" fill="#161b22"/>
<rect x="316" y="294" width="10" height="10" rx="2" fill="#161b22"/>
<rect x="316" y="307" width="10" height="10" rx="2" fill="#161b22"/>
<rect x="316" y="320" width="10" height="10" rx="2" fill="#161b22"/>
<rect x="316" y="333" width="10" height="10" rx="2" fill="#161b22"/>
<rect x="316" y="346" width="10" height="10" rx="2" fill="#161b22"/>
<rect x="316" y="359" width="10" height="10" rx="2" fill="#161b22"/>
<rect x="316" y="372" width="10" height="10" rx="2" fill="#161b22"/>
<rect x="329" y="294" width="10" height="10" rx="2" fill="#161b22"/>
<rect x="329" y="307" width="10" height="10" rx="2" fill="#161b22"/>
<rect x="329" y="320" width="10" height="10" rx="2" fill="#161b22"/>
<rect x="329" y="333" width="10" height="10" rx="2" fill="#161b22"/>
<rect x="329" y="346" width="10" height="10" rx="2" fill="#161b22"/>
<rect x="329" y="359" width="10" height="10" rx="2" fill="#161b22"/>
<rect x="329" y="372" width="10" height="10" rx="2" fill="#161b22"/>
<rect x="342" y="294" width="10" height="10" rx="2" fill="#161b22"/>
<rect x="342" y="307" width="10" height="10" rx="2" fill="#161b22"/>
<rect x="342" y="320" width="10" height="10" rx="2" fill="#161b22"/>
<rect x="342" y="333" width="10" height="10" rx="2" fill="#161b22"/>
<rect x="342" y="346" width="10" height="10" rx="2" fill="#161b22"/>
<rect x="342" y="359" width="10" height="10" rx="2" fill="#161b22"/>
<rect x="342" y="372" width="10" height="10" rx="2" fill="#161b22"/>
<rect x="355" y="294" width="10" height="10" rx="2" fill="#161b22"/>
<rect x="355" y="307" width="10" height="10" rx="2" fill="#161b22"/>
<rect x="355" y="320" width="10" height="10" rx="2" fill="#161b22"/>
<rect x="355" y="333" width="10" height="10" rx="2" fill="#161b22"/>
<rect x="355" y="346" width="10" height="10" rx="2" fill="#161b22"/>
<rect x="355" y="359" width="10" height="10" rx="2" fill="#161b22"/>
<rect x="355" y="372" width="10" height="10" rx="2" fill="#161b22"/>
<rect x="368" y="294" width="10" height="10" rx="2" fill="#161b22"/>
<rect x="368" y="307" width="10" height="10" rx="2" fill="#161b22"/>
<rect x="368" y="320" width="10" height="10" rx="2" fill="#161b22"/>
<rect x="368" y="333" width="10" height="10" rx="2" fill="#161b22"/>
<rect x="368" y="346" width="10" height="10" rx="2" fill="#161b22"/>
<rect x="368" y="359" width="10" height="10" rx="2" fill="#161b22"/>
<rect x="368" y="372" width="10" height="10" rx="2" fill="#161b22"/>
<rect x="381" y="294" width="10" height="10" rx="2" fill="#161b22"/>
<rect x="381" y="307" width="10" height="10" rx="2" fill="#161b22"/>
<rect x="381" y="320" width="10" height="10" rx="2" fill="#161b22"/>
<rect x="381" y="333" width="10" height="10" rx="2" fill="#161b22"/>
<rect x="381" y="346" width="10" height="10" rx="2" fill="#161b22"/>
<rect x="381" y="359" width="10" height="10" rx="2" fill="#161b22"/>
<rect x="381" y="372" width="10" height="10" rx="2" fill="#161b22"/>
<rect x="394" y="294" width="10" height="10" rx="2" fill="#161b22"/>
<rect x="394" y="307" width="10" height="10" rx="2" fill="#161b22"/>
<rect x="394" y="320" width="10" height="10" rx="2" fill="#161b22"/>
<rect x="394" y="333" width="10" height="10" rx="2" fill="#161b22"/>
<rect x="394" y="346" width="10" height="10" rx="2" fill="#161b22"/>
<rect x="394" y="359" width="10" height="10" rx="2" fill="#161b22"/>
<rect x="394" y="372" width="10" height="10" rx="2" fill="#161b22"/>
<rect x="407" y="294" width="10" height="10" rx="2" fill="#161b22"/>
<rect x="407" y="307" width="10" height="10" rx="2" fill="#161b22"/>
<rect x="407" y="320" width="10" height="10" rx="2" fill="#161b22"/>
<rect x="407" y="333" width="10" height="10" rx="2" fill="#161b22"/>
<rect x="407" y="346" width="10" height="10" rx="2" fill="#161b22"/>
<rect x="407" y="359" width="10" height="10" rx="2" fill="#161b22"/>
<rect x="407" y="372" width="10" height="10" rx="2" fill="#161b22"/>
<rect x="420" y="294" width="10" height="10" rx="2" fill="#161b22"/>
<rect x="420" y="307" width="10" height="10" rx="2" fill="#161b22"/>
<rect x="420" y="320" width="10" height="10" rx="2" fill="#161b22"/>
<rect x="420" y="333" width="10" height="10" rx="2" fill="#161b22"/>
<rect x="420" y="346" width="10" height="10" rx="2" fill="#161b22"/>
<rect x="420" y="359" width="10" height="10" rx="2" fill="#161b22"/>
<rect x="420" y="372" width="10" height="10" rx="2" fill="#161b22"/>
<rect x="433" y="294" width="10" height="10" rx="2" fill="#161b22"/>
<rect x="433" y="307" width="10" height="10" rx="2" fill="#161b22"/>
<rect x="433" y="320" width="10" height="10" rx="2" fill="#161b22"/>
<rect x="433" y="333" width="10" height="10" rx="2" fill="#161b22"/>
<rect x="433" y="346" width="10" height="10" rx="2" fill="#161b22"/>
<rect x="433" y="359" width="10" height="10" rx="2" fill="#161b22"/>
<rect x="433" y="372" width="10" height="10" rx="2" fill="#161b22"/>
<rect x="446" y="294" width="10" height="10" rx="2" fill="#161b22"/>
<rect x="446" y="307" width="10" height="10" rx="2" fill="#161b22"/>
<rect x="446" y="320" width="10" height="10" rx="2" fill="#161b22"/>
<rect x="446" y="333" width="10" height="10" rx="2" fill="#161b22"/>
<rect x="446" y="346" width="10" height="10" rx="2" fill="#161b22"/>
<rect x="446" y="359" width="10" height="10" rx="2" fill="#161b22"/>
<rect x="446" y="372" width="10" height="10" rx="2" fill="#161b22"/>
<rect x="459" y="294" width="10" height="10" rx="2" fill="#161b22"/>
<rect x="459" y="307" width="10" height="10" rx="2" fill="#161b22"/>
<rect x="459" y="320" width="10" height="10" rx="2" fill="#161b22"/>
<rect x="459" y="333" width="10" height="10" rx="2" fill="#161b22"/>
<rect x="459" y="346" width="10" height="10" rx="2" fill="#161b22"/>
<rect x="459" y="359" width="10" height="10" rx="2" fill="#161b22"/>
<rect x="459" y="372" width="10" height="10" rx="2" fill="#161b22"/>
<rect x="472" y="294" width="10" height="10" rx="2" fill="#161b22"/>
<rect x="472" y="307" width="10" height="10" rx="2" fill="#161b22"/>
<rect x="472" y="320" width="10" height="10" rx="2" fill="#161b22"/>
<rect x="472" y="333" width="10" height="10" rx="2" fill="#161b22"/>
<rect x="472" y="346" width="10" height="10" rx="2" fill="#161b22"/>
<rect x="472" y="359" width="10" height="10" rx="2" fill="#161b22"/>
<rect x="472" y="372" width="10" height="10" rx="2" fill="#161b22"/>
<rect x="485" y="294" width="10" height="10" rx="2" fill="#161b22"/>
<rect x="485" y="307" width="10" height="10" rx="2" fill="#161b22"/>
<rect x="485" y="320" width="10" height="10" rx="2" fill="#161b22"/>
<rect x="485" y="333" width="10" height="10" rx="2" fill="#161b22"/>
<rect x="485" y="346" width="10" height="10" rx="2" fill="#161b22"/>
<rect x="485" y="359" width="10" height="10" rx="2" fill="#161b22"/>
<rect x="485" y="372" width="10" height="10" rx="2" fill="#161b22"/>
<rect x="498" y="294" width="10" height="10" rx="2" fill="#161b22"/>
<rect x="498" y="307" width="10" height="10" rx="2" fill="#161b22"/>
<rect x="498" y="320" width="10" height="10" rx="2" fill="#161b22"/>
<rect x="498" y="333" width="10" height="10" rx="2" fill="#161b22"/>
<rect x="498" y="346" width="10" height="10" rx="2" fill="#161b22"/>
<rect x="498" y="359" width="10" height="10" rx="2" fill="#161b22"/>
<rect x="498" y="372" width="10" height="10" rx="2" fill="#161b22"/>
<rect x="511" y="294" width="10" height="10" rx="2" fill="#161b22"/>
<rect x="511" y="307" width="10" height="10" rx="2" fill="#161b22"/>
<rect x="511" y="320" width="10" height="10" rx="2" fill="#161b22"/>
<rect x="511" y="333" width="10" height="10" rx="2" fill="#161b22"/>
<rect x="511" y="346" width="10" height="10" rx="2" fill="#161b22"/>
<rect x="511" y="359" width="10" height="10" rx="2" fill="#161b22"/>
<rect x="511" y="372" width="10" height="10" rx="2" fill="#161b22"/>
<rect x="524" y="294" width="10" height="10" rx="2" fill="#161b22"/>
<rect x="524" y="307" width="10" height="10" rx="2" fill="#161b22"/>
<rect x="524" y="320" width="10" height="10" rx="2" fill="#161b22"/>
<rect x="524" y="333" width="10" height="10" rx="2" fill="#161b22"/>
<rect x="524" y="346" width="10" height="10" rx="2" fill="#161b22"/>
<rect x="524" y="359" width="10" height="10" rx="2" fill="#161b22"/>
<rect x="524" y="372" width="10" height="10" rx="2" fill="#161b22"/>
<rect x="537" y="294" width="10" height="10" rx="2" fill="#161b22"/>
<rect x="537" y="307" width="10" height="10" rx="2" fill="#161b22"/>
<rect x="537" y="320" width="10" height="10" rx="2" fill="#161b22"/>
<rect x="537" y="333" width="10" height="10" rx="2" fill="#161b22"/>
<rect x="537" y="346" width="10" height="10" rx="2" fill="#161b22"/>
<rect x="537" y="359" width="10" height="10" rx="2" fill="#161b22"/>
<rect x="537" y="372" width="10" height="10" rx="2" fill="#161b22"/>
<rect x="550" y="294" width="10" height="10" rx="2" fill="#161b22"/>
<rect x="550" y="307" width="10" height="10" rx="2" fill="#161b22"/>
<rect x="550" y="320" width="10" height="10" rx="2" fill="#161b22"/>
<rect x="550" y="333" width="10" height="10" rx="2" fill="#161b22"/>
<rect x="550" y="346" width="10" height="10" rx="2" fill="#161b22"/>
<rect x="550" y="359" width="10" height="10" rx="2" fill="#161b22"/>
<rect x="550" y="372" width="10" height="10" rx="2" fill="#161b22"/>
<rect x="563" y="294" width="10" height="10" rx="2" fill="#161b22"/>
<rect x="563" y="307" width="10" height="10" rx="2" fill="#161b22"/>
<rect x="563" y="320" width="10" height="10" rx="2" fill="#161b22"/>
<rect x="563" y="333" width="10" height="10" rx="2" fill="#161b22"/>
<rect x="563" y="346" width="10" height="10" rx="2" fill="#161b22"/>
<rect x="563" y="359" width="10" height="10" rx="2" fill="#161b22"/>
<rect x="563" y="372" width="10" height="10" rx="2" fill="#161b22"/>
<rect x="576" y="294" width="10" height="10" rx="2" fill="#161b22"/>
<rect x="576" y="307" width="10" height="10" rx="2" fill="#161b22"/>
<rect x="576" y="320" width="10" height="10" rx="2" fill="#161b22"/>
<rect x="576" y="333" width="10" height="10" rx="2" fill="#161b22"/>
<rect x="576" y="346" width="10" height="10" rx="2" fill="#161b22"/>
<rect x="576" y="359" width="10" height="10" rx="2" fill="#161b22"/>
<rect x="576" y="372" width="10" height="10" rx="2" fill="#161b22"/>
<rect x="589" y="294" width="10" height="10" rx="2" fill="#161b22"/>
<rect x="589" y="307" width="10" height="10" rx="2" fill="#161b22"/>
<rect x="589" y="320" width="10" height="10" rx="2" fill="#161b22"/>
<rect x="589" y="333" width="10" height="10" rx="2" fill="#161b22"/>
<rect x="589" y="346" width="10" height="10" rx="2" fill="#161b22"/>
<rect x="589" y="359" width="10" height="10" rx="2" fill="#161b22"/>
<rect x="589" y="372" width="10" height="10" rx="2" fill="#161b22"/>
<rect x="602" y="294" width="10" height="10" rx="2" fill="#161b22"/>
<rect x="602" y="307" width="10" height="10" rx="2" fill="#161b22"/>
<rect x="602" y="320" width="10" height="10" rx="2" fill="#161b22"/>
<rect x="602" y="333" width="10" height="10" rx="2" fill="#161b22"/>
<rect x="602" y="346" width="10" height="10" rx="2" fill="#161b22"/>
<rect x="602" y="359" width="10" height="10" rx="2" fill="#161b22"/>
<rect x="602" y="372" width="10" height="10" rx="2" fill="#161b22"/>
<rect x="615" y="294" width="10" height="10" rx="2" fill="#161b22"/>
<rect x="615" y="307" width="10" height="10" rx="2" fill="#161b22"/>
<rect x="615" y="320" width="10" height="10" rx="2" fill="#161b22"/>
<rect x="615" y="333" width="10" height="10" rx="2" fill="#161b22"/>
<rect x="615" y="346" width="10" height="10" rx="2" fill="#161b22"/>
<rect x="615" y="359" width="10" height="10" rx="2" fill="#161b22"/>
<rect x="615" y="372" width="10" height="10" rx="2" fill="#161b22"/>
<rect x="628" y="294" width="10" height="10" rx="2" fill="#161b22"/>
<rect x="628" y="307" width="10" height="10" rx="2" fill="#161b22"/>
<rect x="628" y="320" width="10" height="10" rx="2" fill="#161b22"/>
<rect x="628" y="333" width="10" height="10" rx="2" fill="#161b22"/>
<rect x="628" y="346" width="10" height="10" rx="2" fill="#161b22"/>
<rect x="628" y="359" width="10" height="10" rx="2" fill="#161b22"/>
<rect x="628" y="372" width="10" height="10" rx="2" fill="#161b22"/>
<rect x="641" y="294" width="10" height="10" rx="2" fill="#161b22"/>
<rect x="641" y="307" width="10" height="10" rx="2" fill="#161b22"/>
<rect x="641" y="320" width="10" height="10" rx="2" fill="#161b22"/>
<rect x="641" y="333" width="10" height="10" rx="2" fill="#161b22"/>
<rect x="641" y="346" width="10" height="10" rx="2" fill="#161b22"/>
<rect x="641" y="359" width="10" height="10" rx="2" fill="#161b22"/>
<rect x="641" y="372" width="10" height="10" rx="2" fill="#161b22"/>
<rect x="654" y="294" width="10" height="10" rx="2" fill="#161b22"/>
<rect x="654" y="307" width="10" height="10" rx="2" fill="#161b22"/>
<rect x="654" y="320" width="10" height="10" rx="2" fill="#161b22"/>
<rect x="654" y="333" width="10" height="10" rx="2" fill="#161b22"/>
<rect x="654" y="346" width="10" height="10" rx="2" fill="#161b22"/>
<rect x="654" y="359" width="10" height="10" rx="2" fill="#161b22"/>
<rect x="654" y="372" width="10" height="10" rx="2" fill="#161b22"/>
<rect x="667" y="294" width="10" height="10" rx="2" fill="#161b22"/>
<rect x="667" y="307" width="10" height="10" rx="2" fill="#161b22"/>
<rect x="667" y="320" width="10" height="10" rx="2" fill="#161b22"/>
<rect x="667" y="333" width="10" height="10" rx="2" fill="#161b22"/>
<rect x="667" y="346" width="10" height="10" rx="2" fill="#161b22"/>
<rect x="667" y="359" width="10" height="10" rx="2" fill="#161b22"/>
<rect x="667" y="372" width="10" height="10" rx="2" fill="#161b22"/>
<rect x="680" y="294" width="10" height="10" rx="2" fill="#161b22"/>
<rect x="680" y="307" width="10" height="10" rx="2" fill="#161b22"/>
<rect x="680" y="320" width="10" height="10" rx="2" fill="#161b22"/>
<rect x="680" y="333" width="10" height="10" rx="2" fill="#161b22"/>
<rect x="680" y="346" width="10" height="10" rx="2" fill="#161b22"/>
<rect x="680" y="359" width="10" height="10" rx="2" fill="#161b22"/>
<rect x="680" y="372" width="10" height="10" rx="2" fill="#161b22"/>
<rect x="693" y="294" width="10" height="10" rx="2" fill="#161b22"/>
<rect x="693" y="307" width="10" height="10" rx="2" fill="#161b22"/>
<rect x="693" y="320" width="10" height="10" rx="2" fill="#161b22"/>
<rect x="693" y="333" width="10" height="10" rx="2" fill="#161b22"/>
<rect x="693" y="346" width="10" height="10" rx="2" fill="#161b22"/>
<rect x="693" y="359" width="10" height="10" rx="2" fill="#161b22"/>
<rect x="693" y="372" width="10" height="10" rx="2" fill="#161b22"/>
<text x="368.0" y="343.5" font-family="-apple-system, BlinkMacSystemFont, 'Segoe UI', Helvetica, Arial, sans-serif" font-size="11" fill="#6e7681" text-anchor="middle" opacity="1.0" >(contribution data loads after first Action run)</text>
<rect x="30" y="403" width="3" height="16" rx="2" fill="#d2991d"/>
<text x="42" y="416" font-family="-apple-system, BlinkMacSystemFont, 'Segoe UI', Helvetica, Arial, sans-serif" font-size="14" fill="#e6edf3" text-anchor="start" font-weight="bold" opacity="1.0" >Languages</text>
<text x="38" y="439" font-family="-apple-system, BlinkMacSystemFont, 'Segoe UI', Helvetica, Arial, sans-serif" font-size="12" fill="#6e7681" text-anchor="start" opacity="1.0" >(No public repos yet)</text>
<rect x="30" y="463" width="3" height="16" rx="2" fill="#39d2c0"/>
<text x="42" y="476" font-family="-apple-system, BlinkMacSystemFont, 'Segoe UI', Helvetica, Arial, sans-serif" font-size="14" fill="#e6edf3" text-anchor="start" font-weight="bold" opacity="1.0" >Recent Activity</text>
<text x="32" y="498" font-family="-apple-system, BlinkMacSystemFont, 'Segoe UI', Helvetica, Arial, sans-serif" font-size="14" fill="#e6edf3" text-anchor="start" opacity="1.0" >⭐</text>
<text x="58" y="498" font-family="-apple-system, BlinkMacSystemFont, 'Segoe UI', Helvetica, Arial, sans-serif" font-size="12" fill="#8b949e" text-anchor="start" opacity="1.0" >starred ruvnet/RuView</text>
<text x="830" y="498" font-family="-apple-system, BlinkMacSystemFont, 'Segoe UI', Helvetica, Arial, sans-serif" font-size="11" fill="#6e7681" text-anchor="end" opacity="1.0" >3m ago</text>
<text x="32" y="522" font-family="-apple-system, BlinkMacSystemFont, 'Segoe UI', Helvetica, Arial, sans-serif" font-size="14" fill="#e6edf3" text-anchor="start" opacity="1.0" >🔀</text>
<text x="58" y="522" font-family="-apple-system, BlinkMacSystemFont, 'Segoe UI', Helvetica, Arial, sans-serif" font-size="12" fill="#8b949e" text-anchor="start" opacity="1.0" >opened PR in sysu/better-thesis</text>
<text x="830" y="522" font-family="-apple-system, BlinkMacSystemFont, 'Segoe UI', Helvetica, Arial, sans-serif" font-size="11" fill="#6e7681" text-anchor="end" opacity="1.0" >1h ago</text>
<text x="32" y="546" font-family="-apple-system, BlinkMacSystemFont, 'Segoe UI', Helvetica, Arial, sans-serif" font-size="14" fill="#e6edf3" text-anchor="start" opacity="1.0" >📦</text>
<text x="58" y="546" font-family="-apple-system, BlinkMacSystemFont, 'Segoe UI', Helvetica, Arial, sans-serif" font-size="12" fill="#8b949e" text-anchor="start" opacity="1.0" >pushed to RenAhsAcme/better-thesis-fork</text>
<text x="830" y="546" font-family="-apple-system, BlinkMacSystemFont, 'Segoe UI', Helvetica, Arial, sans-serif" font-size="11" fill="#6e7681" text-anchor="end" opacity="1.0" >1h ago</text>
<text x="32" y="570" font-family="-apple-system, BlinkMacSystemFont, 'Segoe UI', Helvetica, Arial, sans-serif" font-size="14" fill="#e6edf3" text-anchor="start" opacity="1.0" >📦</text>
<text x="58" y="570" font-family="-apple-system, BlinkMacSystemFont, 'Segoe UI', Helvetica, Arial, sans-serif" font-size="12" fill="#8b949e" text-anchor="start" opacity="1.0" >pushed to RenAhsAcme/better-thesis-fork</text>
<text x="830" y="570" font-family="-apple-system, BlinkMacSystemFont, 'Segoe UI', Helvetica, Arial, sans-serif" font-size="11" fill="#6e7681" text-anchor="end" opacity="1.0" >1h ago</text>
<text x="32" y="594" font-family="-apple-system, BlinkMacSystemFont, 'Segoe UI', Helvetica, Arial, sans-serif" font-size="14" fill="#e6edf3" text-anchor="start" opacity="1.0" >📦</text>
<text x="58" y="594" font-family="-apple-system, BlinkMacSystemFont, 'Segoe UI', Helvetica, Arial, sans-serif" font-size="12" fill="#8b949e" text-anchor="start" opacity="1.0" >pushed to RenAhsAcme/better-thesis-fork</text>
<text x="830" y="594" font-family="-apple-system, BlinkMacSystemFont, 'Segoe UI', Helvetica, Arial, sans-serif" font-size="11" fill="#6e7681" text-anchor="end" opacity="1.0" >1h ago</text>
<line x1="30" y1="630" x2="830" y2="630" stroke="#30363d" stroke-width="1"/>
<text x="30" y="651" font-family="-apple-system, BlinkMacSystemFont, 'Segoe UI', Helvetica, Arial, sans-serif" font-size="12" fill="#8b949e" text-anchor="start" opacity="1.0" >🌐  RenAhsAcme.github.io</text>
<text x="230" y="651" font-family="-apple-system, BlinkMacSystemFont, 'Segoe UI', Helvetica, Arial, sans-serif" font-size="12" fill="#8b949e" text-anchor="start" opacity="1.0" >🐍  github.com/RenAhsAcme</text>
<text x="830" y="651" font-family="-apple-system, BlinkMacSystemFont, 'Segoe UI', Helvetica, Arial, sans-serif" font-size="10" fill="#6e7681" text-anchor="end" opacity="1.0" >updated 2026-05-11 03:08 UTC</text>
</svg>